# xmcd CD database file
#
# Track frame offsets:
#	150
#	17427
#	31050
#	58355
#	81580
#	112730
#	131182
#	152882
#	175760
#	191875
#	211072
#	240607
#	257955
#	277475
#	299242
#
# Disc length: 4257 seconds
#
# Revision: 3
# Processed by: cddbd v1.5PL3 Copyright (c) Steve Scherf et al.
# Submitted via: CDex 1.51
#
DISCID=ea109f0f
DTITLE=さまざまなアーティスト - DRIVIN' FUSION SOUNDS 60 DISC3
DYEAR=1984
DGENRE=Fusion
TTITLE0=TERUMASA HINO-OTIS
TTITLE1=MARLENE-NEEDLE IN A HAYSTACK
TTITLE2=KEN MURAMATSU-PASTEL COLOR
TTITLE3=THE SQUARE-FROM 03 TO 06(Receivers)
TTITLE4=MASATAKA MATSUTOYA-IMAGE
TTITLE5=NANIWA EXPRESS-JASMIN
TTITLE6=KIMIKO KASAI-THE RIGHT PLACE
TTITLE7=THE PLAYERS-SPACE TRAVEL
TTITLE8=SHIGERU SUZUKI-PASSION FLOWER
TTITLE9=THE SQUARE-CHANGE YOUR MIND
TTITLE10=SADAO WATANABE-GOOD FOR ALL NIGHT
TTITLE11=MARLENE-SUMMER NIGHT
TTITLE12=NANIWA EXPRESS-RED ZONE
TTITLE13=KEN MURAMATSU-MOONLIGHT LADY
TTITLE14=THE SQUARE-脚線美の誘惑
EXTD=YEAR: 1984
EXTT0=
EXTT1=
EXTT2=
EXTT3=
EXTT4=
EXTT5=
EXTT6=
EXTT7=
EXTT8=
EXTT9=
EXTT10=
EXTT11=
EXTT12=
EXTT13=
EXTT14=
PLAYORDER=
